<?xml version="1.0" encoding="iso-8859-1"?>
<!-- Generator: Adobe Illustrator 19.1.0, SVG Export Plug-In . SVG Version: 6.00 Build 0)  -->
<svg version="1.1" id="Capa_1" xmlns="http://www.w3.org/2000/svg" xmlns:xlink="http://www.w3.org/1999/xlink" x="0px" y="0px"
	 viewBox="0 0 194.666 194.666" style="enable-background:new 0 0 194.666 194.666;" xml:space="preserve">
<g>
	<g>
		<path d="M151.45,194.666H43.215c-14.958,0-27.127-11.495-27.127-25.625v-56.946c0-14.137,12.169-25.638,27.127-25.638H151.45
			c14.959,0,27.128,11.501,27.128,25.638v56.946C178.578,183.171,166.409,194.666,151.45,194.666z M43.215,88.057
			c-14.076,0-25.527,10.784-25.527,24.039v56.946c0,13.248,11.451,24.025,25.527,24.025H151.45
			c14.076,0,25.528-10.778,25.528-24.025v-56.946c0-13.255-11.452-24.039-25.528-24.039H43.215z M63.841,107.151L63.841,107.151
			l-35.769-0.059c-0.442,0-0.8-0.359-0.799-0.801c0.001-0.441,0.358-0.798,0.8-0.798h0.001l35.768,0.059
			c0.442,0,0.8,0.359,0.799,0.801C64.64,106.794,64.282,107.151,63.841,107.151z M92.184,77.202c-2.767,0-5.046-0.387-6.97-1.182
			c-1.965-0.814-3.516-2.059-4.611-3.698c-1.062-1.572-1.831-3.522-2.284-5.791c-0.443-2.177-0.659-5.39-0.659-9.821V43.726
			c0-4.735,0.404-8.519,1.202-11.248c0.832-2.798,2.352-5.077,4.517-6.776c2.175-1.713,4.969-2.583,8.305-2.583
			c2.773,0,5.213,0.552,7.249,1.642c2.053,1.117,3.638,2.565,4.718,4.309c1.086,1.713,1.84,3.517,2.238,5.355
			c0.403,1.818,0.6,4.502,0.6,8.202v12.401c0,4.552-0.185,7.97-0.548,10.157c-0.36,2.206-1.16,4.31-2.377,6.249
			c-1.24,1.969-2.848,3.438-4.777,4.369C96.886,76.731,94.664,77.202,92.184,77.202z M91.683,24.72
			c-2.968,0-5.429,0.754-7.315,2.241c-1.9,1.491-3.236,3.5-3.972,5.971c-0.754,2.579-1.137,6.212-1.137,10.795v12.983
			c0,4.263,0.211,7.46,0.628,9.505c0.412,2.062,1.1,3.816,2.044,5.215c0.919,1.375,2.229,2.421,3.896,3.112
			c1.701,0.704,3.841,1.061,6.357,1.061c2.267,0,4.197-0.405,5.902-1.238c1.659-0.8,3.045-2.072,4.122-3.781
			c1.117-1.782,1.821-3.633,2.153-5.658c0.349-2.103,0.526-5.432,0.526-9.896V42.628c0-3.532-0.189-6.176-0.563-7.859
			c-0.358-1.659-1.041-3.289-2.03-4.849c-0.937-1.511-2.321-2.771-4.122-3.75C96.375,25.208,94.19,24.72,91.683,24.72z
			 M141.438,76.487h-14.804c-1.913,0-4.6-0.443-5.979-1.417c-1.343-0.949-2.341-2.211-2.968-3.752
			c-0.603-1.479-0.974-2.997-1.134-4.642c-0.146-1.644-0.219-4.739-0.219-9.208V24.102c0-0.442,0.358-0.8,0.8-0.8s0.8,0.358,0.8,0.8
			v33.365c0,4.36,0.073,7.493,0.212,9.061c0.145,1.481,0.479,2.853,1.023,4.186c0.517,1.272,1.305,2.269,2.409,3.049
			c1.033,0.73,3.376,1.125,5.055,1.125h14.004V24.102c0-0.442,0.358-0.8,0.8-0.8s0.8,0.358,0.8,0.8v51.585
			C142.238,76.129,141.88,76.487,141.438,76.487z M61.315,30.447c-0.303,0-0.58-0.171-0.715-0.441L46.151,1.159
			c-0.198-0.395-0.038-0.876,0.356-1.074c0.396-0.199,0.876-0.037,1.073,0.357L61.31,27.851L74.81,0.515
			c0.196-0.396,0.672-0.56,1.072-0.363c0.396,0.196,0.559,0.675,0.363,1.071L62.033,30.001c-0.135,0.272-0.412,0.445-0.716,0.446
			C61.317,30.447,61.316,30.447,61.315,30.447z"/>
	</g>
	<path d="M61.315,77.186c-0.441,0-0.8-0.358-0.8-0.8V29.647c0-0.442,0.358-0.8,0.8-0.8s0.8,0.358,0.8,0.8v46.739
		C62.115,76.828,61.757,77.186,61.315,77.186z"/>
	<path d="M44.626,176.017c-0.441,0-0.8-0.358-0.8-0.8v-68.892c0-0.442,0.358-0.8,0.8-0.8s0.8,0.358,0.8,0.8v68.892
		C45.426,175.659,45.067,176.017,44.626,176.017z"/>
	<path d="M115.007,176.365c-0.217,0-0.435-0.008-0.655-0.025l-14.308,0.002c-0.441,0-0.8-0.358-0.8-0.8v-44.909
		c0-0.006,0-0.012,0-0.018v-24.291c0-0.442,0.358-0.8,0.8-0.8s0.8,0.358,0.8,0.8v22.688l4.601-3.489
		c4.816-3.836,9.543-4.961,13.285-3.159c3.707,1.785,5.924,6.206,5.929,11.827l0.02,26.66c0.012,6.041-1.526,10.802-4.329,13.405
		C118.856,175.643,117.02,176.365,115.007,176.365z M100.844,174.742h13.568c1.9,0.14,3.512-0.416,4.848-1.657
		c2.437-2.263,3.828-6.721,3.818-12.231l-0.02-26.66c-0.005-4.992-1.883-8.875-5.022-10.387c-3.162-1.522-7.284-0.465-11.61,2.98
		l-5.582,4.234V174.742z"/>
	<path d="M87.626,176.365H72.822c-1.914,0-4.603-0.443-5.981-1.417c-1.337-0.945-2.335-2.207-2.967-3.75
		c-0.602-1.482-0.971-3-1.131-4.644c-0.146-1.644-0.219-4.74-0.219-9.209v-33.365c0-0.442,0.358-0.8,0.8-0.8s0.8,0.358,0.8,0.8
		v33.365c0,4.36,0.073,7.493,0.212,9.061c0.145,1.48,0.478,2.853,1.02,4.188c0.521,1.273,1.31,2.271,2.409,3.047
		c1.033,0.73,3.377,1.125,5.058,1.125h14.804c0.441,0,0.8,0.358,0.8,0.8S88.067,176.365,87.626,176.365z"/>
	<path d="M87.626,176.365c-0.441,0-0.8-0.358-0.8-0.8v-51.585c0-0.442,0.358-0.8,0.8-0.8s0.8,0.358,0.8,0.8v51.585
		C88.426,176.007,88.067,176.365,87.626,176.365z"/>
	<path d="M148.613,176.594c-2.399,0-4.794-0.608-6.938-1.827c-3.043-1.73-8.146-6.224-8.146-16.874v-15.438
		c0-4.764,0.466-8.428,1.426-11.203c0.933-2.692,2.566-4.887,4.854-6.523c4.153-2.997,10.749-3.656,15.682-1.563
		c3.671,1.557,5.982,4.433,6.511,8.098c0.426,2.958,0.561,19.613,0.566,20.32c0.002,0.213-0.082,0.418-0.231,0.57
		c-0.15,0.151-0.355,0.236-0.568,0.236h-26.639v5.503c0,7.293,2.606,12.792,7.338,15.483c3.89,2.212,8.717,2.152,12.601-0.157
		c4.052-2.409,6.316-6.849,6.213-12.18c-0.009-0.442,0.343-0.807,0.784-0.815c0.006,0,0.011,0,0.016,0
		c0.435,0,0.791,0.348,0.8,0.784c0.114,5.923-2.435,10.875-6.995,13.587C153.645,175.927,151.127,176.594,148.613,176.594z
		 M135.129,150.791h25.831c-0.033-3.44-0.185-16.806-0.543-19.299c-0.57-3.959-3.334-5.912-5.552-6.853
		c-4.449-1.888-10.391-1.303-14.123,1.39c-2.044,1.463-3.441,3.342-4.275,5.748c-0.888,2.567-1.338,6.161-1.338,10.68V150.791z"/>
</g>
<g>
</g>
<g>
</g>
<g>
</g>
<g>
</g>
<g>
</g>
<g>
</g>
<g>
</g>
<g>
</g>
<g>
</g>
<g>
</g>
<g>
</g>
<g>
</g>
<g>
</g>
<g>
</g>
<g>
</g>
</svg>
